<svg xmlns="http://www.w3.org/2000/svg" xmlns:xlink="http://www.w3.org/1999/xlink" width="333" zoomAndPan="magnify" viewBox="0 0 249.75 119.999999" height="160" preserveAspectRatio="xMidYMid meet" version="1.0"><defs><g/><clipPath id="26da4d61ea"><path d="M 0 0.46875 L 56.367188 0.46875 L 56.367188 119.316406 L 0 119.316406 Z M 0 0.46875 " clip-rule="nonzero"/></clipPath><clipPath id="dc9d474d8f"><path d="M 64 0.0585938 L 124 0.0585938 L 124 119.9375 L 64 119.9375 Z M 64 0.0585938 " clip-rule="nonzero"/></clipPath><clipPath id="59ae21571d"><path d="M 133 0.0585938 L 184 0.0585938 L 184 119.9375 L 133 119.9375 Z M 133 0.0585938 " clip-rule="nonzero"/></clipPath><clipPath id="699af8d441"><path d="M 187 0.0585938 L 249.5 0.0585938 L 249.5 119.9375 L 187 119.9375 Z M 187 0.0585938 " clip-rule="nonzero"/></clipPath></defs><g clip-path="url(#26da4d61ea)"><path fill="#e6e6dd" d="M 0 0.46875 L 56.367188 0.46875 L 56.367188 119.367188 L 0 119.367188 Z M 0 0.46875 " fill-opacity="1" fill-rule="nonzero"/></g><g clip-path="url(#dc9d474d8f)"><g fill="#e6e6dd" fill-opacity="1"><g transform="translate(59.415414, 119.663571)"><g><path d="M 5.28125 0 L 5.28125 -119.21875 L 29.84375 -119.21875 L 40.796875 -62.171875 L 40.796875 -119.21875 L 63.84375 -119.21875 L 63.84375 0 L 40.53125 0 L 28.59375 -59.671875 L 28.59375 0 Z M 5.28125 0 "/></g></g></g></g><g clip-path="url(#59ae21571d)"><g fill="#e6e6dd" fill-opacity="1"><g transform="translate(128.522877, 119.663571)"><g><path d="M 5.28125 0 L 5.28125 -119.21875 L 53.015625 -119.21875 L 53.015625 -96.171875 L 29.5625 -96.171875 L 29.5625 -73 L 52.046875 -73 L 52.046875 -50.515625 L 29.5625 -50.515625 L 29.5625 -23.171875 L 54.546875 -23.171875 L 54.546875 0 Z M 5.28125 0 "/></g></g></g></g><g clip-path="url(#699af8d441)"><g fill="#e6e6dd" fill-opacity="1"><g transform="translate(185.696122, 119.663571)"><g><path d="M 16.234375 0 L 1.53125 -119.359375 L 24.28125 -119.359375 L 33.03125 -38.171875 L 40.796875 -119.359375 L 63.5625 -119.359375 L 48.84375 0 Z M 16.234375 0 "/></g></g></g></g><g fill="#1f2937" fill-opacity="1"><g transform="translate(46.081306, 105.030391)"><g><path d="M -37.671875 -1.671875 L -37.671875 -11.890625 C -37.671875 -14.640625 -37 -16.632812 -35.65625 -17.875 C -34.3125 -19.113281 -32.117188 -19.734375 -29.078125 -19.734375 L -27.40625 -19.734375 C -23.8125 -19.734375 -21.664062 -18.445312 -20.96875 -15.875 C -20.550781 -17.457031 -19.597656 -18.566406 -18.109375 -19.203125 C -16.617188 -19.847656 -14.644531 -20.171875 -12.1875 -20.171875 C -8.1875 -20.171875 -5.15625 -19.570312 -3.09375 -18.375 C -1.03125 -17.175781 0 -15.015625 0 -11.890625 L 0 -1.671875 Z M -23.515625 -10.5625 C -23.515625 -11.207031 -23.753906 -11.644531 -24.234375 -11.875 C -24.710938 -12.113281 -25.390625 -12.234375 -26.265625 -12.234375 L -30.046875 -12.234375 C -31.273438 -12.234375 -31.890625 -11.691406 -31.890625 -10.609375 L -31.890625 -9.03125 L -23.515625 -9.03125 Z M -6.625 -9.78125 C -6.625 -11.738281 -7.5625 -12.71875 -9.4375 -12.71875 L -14.125 -12.71875 C -15.257812 -12.71875 -16.117188 -12.546875 -16.703125 -12.203125 C -17.296875 -11.867188 -17.59375 -11.28125 -17.59375 -10.4375 L -17.59375 -9.03125 L -6.671875 -9.03125 Z M -6.625 -9.78125 "/></g></g></g><g fill="#1f2937" fill-opacity="1"><g transform="translate(46.081306, 64.994535)"><g><path d="M 0 -1.3125 L -37.671875 -1.3125 L -37.671875 -8.59375 L 0 -8.59375 Z M 0 -1.3125 "/></g></g></g><g fill="#1f2937" fill-opacity="1"><g transform="translate(46.081306, 36.0075)"><g><path d="M 0.34375 -9.4375 C 0.34375 -6.707031 -0.609375 -4.675781 -2.515625 -3.34375 C -4.429688 -2.019531 -7.335938 -1.359375 -11.234375 -1.359375 L -27.453125 -1.359375 C -30.929688 -1.359375 -33.5625 -2.132812 -35.34375 -3.6875 C -37.132812 -5.238281 -38.03125 -7.546875 -38.03125 -10.609375 C -38.03125 -13.097656 -37.53125 -15.03125 -36.53125 -16.40625 C -35.539062 -17.78125 -34.09375 -18.726562 -32.1875 -19.25 C -30.289062 -19.78125 -27.851562 -20.046875 -24.875 -20.046875 L -24.875 -12.671875 L -28.25 -12.671875 C -29.15625 -12.671875 -29.851562 -12.546875 -30.34375 -12.296875 C -30.84375 -12.054688 -31.09375 -11.613281 -31.09375 -10.96875 C -31.09375 -9.53125 -30.160156 -8.8125 -28.296875 -8.8125 L -10.046875 -8.8125 C -8.898438 -8.8125 -8.035156 -8.957031 -7.453125 -9.25 C -6.867188 -9.539062 -6.578125 -10.054688 -6.578125 -10.796875 C -6.578125 -11.523438 -6.867188 -12.035156 -7.453125 -12.328125 C -8.035156 -12.617188 -8.898438 -12.765625 -10.046875 -12.765625 L -15.4375 -12.765625 L -15.4375 -10.75 L -21.9375 -10.75 L -21.9375 -19.953125 L 0 -19.953125 L 0 -16.9375 L -3.15625 -15.65625 C -0.820312 -14.3125 0.34375 -12.238281 0.34375 -9.4375 Z M 0.34375 -9.4375 "/></g></g></g></svg>