<svg xmlns="http://www.w3.org/2000/svg" xmlns:xlink="http://www.w3.org/1999/xlink" width="500" zoomAndPan="magnify" viewBox="0 0 375 374.999991" height="500" preserveAspectRatio="xMidYMid meet" version="1.0"><defs><g/><clipPath id="cc4dab4432"><path d="M 65.832031 122.910156 L 122.082031 122.910156 L 122.082031 244.601562 L 65.832031 244.601562 Z M 65.832031 122.910156 " clip-rule="nonzero"/></clipPath></defs><g fill="#e6e6dd" fill-opacity="1"><g transform="translate(125.135577, 241.624028)"><g><path d="M 5.125 0 L 5.125 -115.75 L 28.96875 -115.75 L 39.609375 -60.375 L 39.609375 -115.75 L 61.984375 -115.75 L 61.984375 0 L 39.34375 0 L 27.765625 -57.9375 L 27.765625 0 Z M 5.125 0 "/></g></g></g><g fill="#e6e6dd" fill-opacity="1"><g transform="translate(192.237192, 241.624028)"><g><path d="M 5.125 0 L 5.125 -115.75 L 51.46875 -115.75 L 51.46875 -93.375 L 28.703125 -93.375 L 28.703125 -70.875 L 50.53125 -70.875 L 50.53125 -49.046875 L 28.703125 -49.046875 L 28.703125 -22.5 L 52.953125 -22.5 L 52.953125 0 Z M 5.125 0 "/></g></g></g><g fill="#e6e6dd" fill-opacity="1"><g transform="translate(247.750979, 241.624028)"><g><path d="M 15.765625 0 L 1.484375 -115.890625 L 23.578125 -115.890625 L 32.078125 -37.0625 L 39.609375 -115.890625 L 61.71875 -115.890625 L 47.4375 0 Z M 15.765625 0 "/></g></g></g><g clip-path="url(#cc4dab4432)"><path fill="#e6e6dd" d="M 65.832031 122.910156 L 122.082031 122.910156 L 122.082031 244.640625 L 65.832031 244.640625 Z M 65.832031 122.910156 " fill-opacity="1" fill-rule="nonzero"/></g><g fill="#1f2937" fill-opacity="1"><g transform="translate(112.985308, 230.128153)"><g><path d="M -38.578125 -1.703125 L -38.578125 -12.171875 C -38.578125 -14.984375 -37.882812 -17.023438 -36.5 -18.296875 C -35.125 -19.566406 -32.878906 -20.203125 -29.765625 -20.203125 L -28.0625 -20.203125 C -24.382812 -20.203125 -22.1875 -18.882812 -21.46875 -16.25 C -21.050781 -17.875 -20.078125 -19.015625 -18.546875 -19.671875 C -17.015625 -20.328125 -14.992188 -20.65625 -12.484375 -20.65625 C -8.378906 -20.65625 -5.269531 -20.039062 -3.15625 -18.8125 C -1.050781 -17.582031 0 -15.367188 0 -12.171875 L 0 -1.703125 Z M -24.0625 -10.828125 C -24.0625 -11.484375 -24.304688 -11.929688 -24.796875 -12.171875 C -25.296875 -12.410156 -26 -12.53125 -26.90625 -12.53125 L -30.765625 -12.53125 C -32.015625 -12.53125 -32.640625 -11.976562 -32.640625 -10.875 L -32.640625 -9.25 L -24.0625 -9.25 Z M -6.78125 -10.015625 C -6.78125 -12.015625 -7.738281 -13.015625 -9.65625 -13.015625 L -14.453125 -13.015625 C -15.628906 -13.015625 -16.515625 -12.84375 -17.109375 -12.5 C -17.703125 -12.15625 -18 -11.550781 -18 -10.6875 L -18 -9.25 L -6.828125 -9.25 Z M -6.78125 -10.015625 "/></g></g></g><g fill="#1f2937" fill-opacity="1"><g transform="translate(112.985308, 189.133587)"><g><path d="M 0 -1.34375 L -38.578125 -1.34375 L -38.578125 -8.796875 L 0 -8.796875 Z M 0 -1.34375 "/></g></g></g><g fill="#1f2937" fill-opacity="1"><g transform="translate(112.985308, 159.452422)"><g><path d="M 0.359375 -9.65625 C 0.359375 -6.875 -0.617188 -4.800781 -2.578125 -3.4375 C -4.546875 -2.070312 -7.519531 -1.390625 -11.5 -1.390625 L -28.109375 -1.390625 C -31.671875 -1.390625 -34.363281 -2.179688 -36.1875 -3.765625 C -38.019531 -5.359375 -38.9375 -7.726562 -38.9375 -10.875 C -38.9375 -13.414062 -38.425781 -15.390625 -37.40625 -16.796875 C -36.382812 -18.203125 -34.898438 -19.171875 -32.953125 -19.703125 C -31.015625 -20.242188 -28.519531 -20.515625 -25.46875 -20.515625 L -25.46875 -12.984375 L -28.921875 -12.984375 C -29.847656 -12.984375 -30.566406 -12.851562 -31.078125 -12.59375 C -31.585938 -12.34375 -31.84375 -11.882812 -31.84375 -11.21875 C -31.84375 -9.757812 -30.882812 -9.03125 -28.96875 -9.03125 L -10.28125 -9.03125 C -9.113281 -9.03125 -8.226562 -9.175781 -7.625 -9.46875 C -7.03125 -9.769531 -6.734375 -10.296875 -6.734375 -11.046875 C -6.734375 -11.796875 -7.03125 -12.316406 -7.625 -12.609375 C -8.226562 -12.910156 -9.113281 -13.0625 -10.28125 -13.0625 L -15.8125 -13.0625 L -15.8125 -11 L -22.453125 -11 L -22.453125 -20.4375 L 0 -20.4375 L 0 -17.328125 L -3.234375 -16.03125 C -0.835938 -14.65625 0.359375 -12.53125 0.359375 -9.65625 Z M 0.359375 -9.65625 "/></g></g></g></svg>