<svg xmlns="http://www.w3.org/2000/svg" xmlns:xlink="http://www.w3.org/1999/xlink" width="100" zoomAndPan="magnify" viewBox="0 0 75 74.999997" height="100" preserveAspectRatio="xMidYMid meet" version="1.0"><rect x="-7.5" width="90" fill="#ffffff" y="-7.5" height="89.999996" fill-opacity="1"/><rect x="-7.5" width="90" fill="#ffffff" y="-7.5" height="89.999996" fill-opacity="1"/><path fill="#3c82f6" d="M 28.847656 1.003906 C 31.625 0.347656 34.519531 0 37.5 0 C 40.480469 0 43.375 0.347656 46.152344 1.003906 L 46.160156 1.007812 C 62.6875 4.921875 75 19.785156 75 37.5 C 75 55.214844 62.6875 70.078125 46.160156 73.992188 L 46.152344 73.996094 C 43.375 74.652344 40.480469 75 37.5 75 C 34.519531 75 31.625 74.652344 28.847656 73.996094 L 28.839844 73.992188 C 12.3125 70.078125 0 55.214844 0 37.5 C 0 19.785156 12.3125 4.921875 28.839844 1.007812 Z M 8.277344 50.894531 C 12.105469 59.226562 19.394531 65.644531 28.300781 68.304688 C 23.765625 64.238281 21.125 58.203125 19.808594 50.894531 Z M 55.1875 50.902344 C 53.875 58.207031 51.230469 64.242188 46.699219 68.304688 C 55.601562 65.644531 62.886719 59.230469 66.71875 50.90625 Z M 25.164062 50.898438 C 26.386719 57.25 28.839844 62.378906 33.371094 65.492188 C 34.59375 66.335938 35.964844 67.019531 37.5 67.535156 C 39.035156 67.019531 40.40625 66.335938 41.628906 65.492188 C 46.15625 62.378906 48.609375 57.25 49.835938 50.902344 Z M 55.90625 29.460938 C 56.144531 32.03125 56.25 34.71875 56.25 37.5 C 56.25 40.28125 56.144531 42.976562 55.90625 45.546875 L 68.625 45.550781 C 69.289062 42.976562 69.644531 40.28125 69.644531 37.5 C 69.644531 34.726562 69.289062 32.03125 68.628906 29.464844 Z M 24.429688 29.453125 C 24.199219 32.015625 24.105469 34.707031 24.105469 37.5 C 24.105469 40.292969 24.199219 42.984375 24.429688 45.542969 L 50.570312 45.546875 C 50.800781 42.984375 50.894531 40.292969 50.894531 37.5 C 50.894531 34.707031 50.800781 32.015625 50.570312 29.457031 Z M 6.375 29.449219 C 5.710938 32.023438 5.355469 34.71875 5.355469 37.5 C 5.355469 40.273438 5.710938 42.96875 6.371094 45.535156 L 19.09375 45.539062 C 18.855469 42.96875 18.75 40.28125 18.75 37.5 C 18.75 34.71875 18.855469 32.023438 19.09375 29.453125 Z M 46.699219 6.695312 C 51.234375 10.761719 53.875 16.796875 55.191406 24.105469 L 66.722656 24.105469 C 62.894531 15.773438 55.605469 9.355469 46.699219 6.695312 Z M 37.5 7.464844 C 35.964844 7.980469 34.59375 8.664062 33.371094 9.507812 C 28.84375 12.621094 26.390625 17.75 25.164062 24.097656 L 49.835938 24.101562 C 48.613281 17.75 46.160156 12.621094 41.628906 9.507812 C 40.40625 8.664062 39.035156 7.980469 37.5 7.464844 Z M 28.300781 6.695312 C 19.398438 9.355469 12.113281 15.769531 8.28125 24.09375 L 19.8125 24.097656 C 21.125 16.792969 23.769531 10.757812 28.300781 6.695312 Z M 28.300781 6.695312 " fill-opacity="1" fill-rule="evenodd"/></svg>