<svg xmlns="http://www.w3.org/2000/svg" xmlns:xlink="http://www.w3.org/1999/xlink" width="100" zoomAndPan="magnify" viewBox="0 0 75 74.999997" height="100" preserveAspectRatio="xMidYMid meet" version="1.0"><defs><clipPath id="d117e622ca"><path d="M 0 3.75 L 74.25 3.75 L 74.25 71.25 L 0 71.25 Z M 0 3.75 " clip-rule="nonzero"/></clipPath></defs><rect x="-7.5" width="90" fill="#ffffff" y="-7.5" height="89.999996" fill-opacity="1"/><rect x="-7.5" width="90" fill="#ffffff" y="-7.5" height="89.999996" fill-opacity="1"/><g clip-path="url(#d117e622ca)"><path fill="#3c82f6" d="M 52.445312 3.800781 C 46.75 3.800781 41.316406 6 37.238281 9.894531 C 33.15625 6 27.722656 3.800781 22.027344 3.800781 C 9.882812 3.800781 0 13.683594 0 25.828125 C 0 28.519531 0.480469 31.148438 1.425781 33.640625 C 1.441406 33.679688 1.457031 33.71875 1.476562 33.761719 L 1.480469 33.773438 C 1.484375 33.78125 1.488281 33.792969 1.492188 33.800781 C 1.5 33.820312 1.507812 33.839844 1.519531 33.863281 C 2.070312 35.285156 2.78125 36.65625 3.628906 37.945312 C 3.628906 37.945312 3.628906 37.945312 3.632812 37.945312 C 7.546875 44.714844 16.960938 57.933594 36.132812 70.835938 C 36.140625 70.839844 36.144531 70.839844 36.148438 70.84375 C 36.152344 70.847656 36.15625 70.847656 36.160156 70.851562 C 36.164062 70.855469 36.171875 70.859375 36.179688 70.863281 C 36.246094 70.90625 36.316406 70.945312 36.386719 70.980469 C 36.414062 70.992188 36.441406 71.003906 36.46875 71.015625 C 36.519531 71.039062 36.574219 71.058594 36.628906 71.078125 C 36.660156 71.089844 36.695312 71.101562 36.726562 71.109375 C 36.78125 71.121094 36.832031 71.132812 36.886719 71.144531 C 36.917969 71.148438 36.949219 71.15625 36.984375 71.160156 C 37.058594 71.171875 37.136719 71.175781 37.21875 71.179688 C 37.222656 71.179688 37.230469 71.179688 37.234375 71.179688 C 37.234375 71.179688 37.234375 71.179688 37.238281 71.179688 C 37.242188 71.179688 37.25 71.179688 37.253906 71.179688 C 37.335938 71.175781 37.414062 71.171875 37.492188 71.160156 C 37.523438 71.15625 37.554688 71.148438 37.585938 71.144531 C 37.640625 71.132812 37.691406 71.125 37.746094 71.109375 C 37.777344 71.101562 37.8125 71.089844 37.84375 71.078125 C 37.898438 71.058594 37.953125 71.039062 38.003906 71.015625 C 38.03125 71.003906 38.058594 70.992188 38.085938 70.980469 C 38.15625 70.945312 38.226562 70.90625 38.292969 70.863281 C 38.300781 70.859375 38.308594 70.855469 38.316406 70.851562 C 38.316406 70.847656 38.320312 70.847656 38.324219 70.84375 C 38.328125 70.839844 38.332031 70.839844 38.339844 70.835938 C 57.511719 57.9375 66.925781 44.714844 70.84375 37.945312 C 71.691406 36.65625 72.402344 35.285156 72.953125 33.863281 C 72.96875 33.828125 72.984375 33.796875 72.996094 33.765625 C 73.011719 33.722656 73.03125 33.679688 73.046875 33.636719 C 73.992188 31.144531 74.472656 28.519531 74.472656 25.828125 C 74.472656 13.683594 64.589844 3.800781 52.445312 3.800781 Z M 37.238281 66.910156 C 19.375 54.648438 10.613281 42.304688 6.949219 35.964844 C 6.945312 35.957031 6.9375 35.945312 6.933594 35.9375 C 6.925781 35.921875 6.917969 35.910156 6.90625 35.898438 C 5.921875 34.183594 5.351562 32.972656 5.089844 32.382812 C 5.082031 32.359375 5.070312 32.339844 5.058594 32.316406 C 5.058594 32.316406 5.058594 32.3125 5.058594 32.3125 C 5.058594 32.3125 5.058594 32.3125 5.058594 32.308594 L 5.035156 32.257812 C 4.257812 30.207031 3.863281 28.042969 3.863281 25.828125 C 3.863281 15.8125 12.011719 7.664062 22.027344 7.664062 C 27.308594 7.664062 32.320312 9.957031 35.773438 13.957031 C 35.78125 13.96875 35.792969 13.976562 35.800781 13.984375 C 35.824219 14.011719 35.847656 14.035156 35.871094 14.058594 C 35.894531 14.082031 35.921875 14.105469 35.945312 14.128906 C 35.957031 14.136719 35.964844 14.148438 35.972656 14.15625 C 35.984375 14.164062 36 14.175781 36.011719 14.183594 C 36.039062 14.207031 36.070312 14.230469 36.101562 14.253906 C 36.121094 14.269531 36.144531 14.285156 36.167969 14.300781 C 36.199219 14.320312 36.226562 14.339844 36.257812 14.359375 C 36.285156 14.375 36.308594 14.386719 36.335938 14.402344 C 36.363281 14.417969 36.394531 14.429688 36.421875 14.445312 C 36.453125 14.457031 36.480469 14.472656 36.511719 14.484375 C 36.539062 14.496094 36.566406 14.503906 36.59375 14.515625 C 36.625 14.527344 36.660156 14.535156 36.691406 14.546875 C 36.71875 14.554688 36.746094 14.558594 36.769531 14.566406 C 36.804688 14.574219 36.839844 14.582031 36.875 14.589844 C 36.898438 14.59375 36.925781 14.597656 36.953125 14.601562 C 36.988281 14.609375 37.023438 14.613281 37.058594 14.617188 C 37.085938 14.617188 37.113281 14.621094 37.140625 14.621094 C 37.171875 14.625 37.207031 14.625 37.238281 14.625 C 37.269531 14.625 37.296875 14.625 37.328125 14.621094 C 37.359375 14.621094 37.390625 14.617188 37.421875 14.613281 C 37.453125 14.613281 37.484375 14.609375 37.515625 14.605469 C 37.542969 14.601562 37.574219 14.59375 37.605469 14.589844 C 37.636719 14.582031 37.667969 14.574219 37.695312 14.570312 C 37.726562 14.5625 37.757812 14.554688 37.785156 14.542969 C 37.816406 14.535156 37.847656 14.527344 37.875 14.515625 C 37.90625 14.503906 37.9375 14.492188 37.964844 14.480469 C 37.992188 14.46875 38.019531 14.457031 38.046875 14.445312 C 38.078125 14.433594 38.109375 14.417969 38.140625 14.398438 C 38.164062 14.386719 38.1875 14.375 38.210938 14.359375 C 38.246094 14.339844 38.277344 14.320312 38.308594 14.300781 C 38.328125 14.285156 38.351562 14.269531 38.371094 14.253906 C 38.402344 14.230469 38.433594 14.210938 38.460938 14.183594 C 38.476562 14.175781 38.488281 14.164062 38.5 14.15625 C 38.511719 14.148438 38.519531 14.136719 38.527344 14.128906 C 38.554688 14.105469 38.578125 14.082031 38.601562 14.058594 C 38.625 14.035156 38.652344 14.007812 38.675781 13.984375 C 38.683594 13.972656 38.691406 13.964844 38.699219 13.957031 C 42.152344 9.957031 47.164062 7.664062 52.445312 7.664062 C 62.460938 7.664062 70.609375 15.8125 70.609375 25.828125 C 70.609375 28.046875 70.214844 30.210938 69.4375 32.261719 L 69.433594 32.261719 C 69.433594 32.269531 69.429688 32.273438 69.429688 32.28125 C 69.425781 32.285156 69.425781 32.285156 69.425781 32.289062 C 69.425781 32.292969 69.421875 32.292969 69.421875 32.296875 C 69.425781 32.285156 69.429688 32.277344 69.433594 32.265625 L 69.429688 32.273438 L 69.414062 32.3125 C 69.402344 32.335938 69.394531 32.359375 69.382812 32.386719 C 69.121094 32.976562 68.546875 34.1875 67.566406 35.894531 C 67.554688 35.910156 67.546875 35.929688 67.535156 35.945312 C 67.53125 35.949219 67.527344 35.957031 67.523438 35.964844 C 63.859375 42.304688 55.097656 54.648438 37.238281 66.910156 Z M 37.238281 66.910156 " fill-opacity="1" fill-rule="nonzero"/></g></svg>