<svg xmlns="http://www.w3.org/2000/svg" xmlns:xlink="http://www.w3.org/1999/xlink" width="100" zoomAndPan="magnify" viewBox="0 0 75 74.999997" height="100" preserveAspectRatio="xMidYMid meet" version="1.0"><defs><clipPath id="37c754cc97"><path d="M 1 0 L 73.703125 0 L 73.703125 75 L 1 75 Z M 1 0 " clip-rule="nonzero"/></clipPath></defs><rect x="-7.5" width="90" fill="#ffffff" y="-7.5" height="89.999996" fill-opacity="1"/><rect x="-7.5" width="90" fill="#ffffff" y="-7.5" height="89.999996" fill-opacity="1"/><g clip-path="url(#37c754cc97)"><path fill="#3c82f6" d="M 65.207031 41.136719 C 65.355469 39.941406 65.46875 38.730469 65.46875 37.5 C 65.46875 36.269531 65.355469 35.058594 65.207031 33.863281 L 73.09375 27.691406 C 73.800781 27.132812 74.007812 26.125 73.539062 25.304688 L 66.082031 12.382812 C 65.617188 11.582031 64.648438 11.246094 63.808594 11.582031 L 54.523438 15.332031 C 52.601562 13.859375 50.496094 12.609375 48.21875 11.65625 L 46.820312 1.777344 C 46.65625 0.898438 45.890625 0.210938 44.957031 0.210938 L 30.042969 0.210938 C 29.109375 0.210938 28.34375 0.898438 28.195312 1.777344 L 26.796875 11.65625 C 24.523438 12.609375 22.414062 13.839844 20.496094 15.332031 L 11.210938 11.582031 C 10.371094 11.265625 9.402344 11.582031 8.933594 12.382812 L 1.476562 25.304688 C 1.011719 26.109375 1.214844 27.113281 1.925781 27.691406 L 9.792969 33.863281 C 9.644531 35.058594 9.53125 36.269531 9.53125 37.5 C 9.53125 38.730469 9.644531 39.941406 9.792969 41.136719 L 1.925781 47.308594 C 1.214844 47.867188 1.011719 48.875 1.476562 49.695312 L 8.933594 62.617188 C 9.402344 63.417969 10.371094 63.753906 11.210938 63.417969 L 20.496094 59.667969 C 22.414062 61.140625 24.523438 62.390625 26.796875 63.34375 L 28.195312 73.222656 C 28.34375 74.101562 29.109375 74.789062 30.042969 74.789062 L 44.957031 74.789062 C 45.890625 74.789062 46.65625 74.101562 46.804688 73.222656 L 48.203125 63.34375 C 50.476562 62.390625 52.582031 61.160156 54.503906 59.667969 L 63.789062 63.417969 C 64.628906 63.734375 65.597656 63.417969 66.0625 62.617188 L 73.523438 49.695312 C 73.988281 48.890625 73.785156 47.886719 73.074219 47.308594 Z M 37.5 50.550781 C 30.285156 50.550781 24.449219 44.714844 24.449219 37.5 C 24.449219 30.285156 30.285156 24.449219 37.5 24.449219 C 44.714844 24.449219 50.550781 30.285156 50.550781 37.5 C 50.550781 44.714844 44.714844 50.550781 37.5 50.550781 Z M 37.5 50.550781 " fill-opacity="1" fill-rule="nonzero"/></g></svg>